# xmcd
# 
# Track frame offsets:
#     182
#     21547
#     42345
#     57857
#     78715
#     94822
#     118937
#     139767
#     158677
#     174635
#     186785
#     207882
#     220532
#     239660
#     257937
#     275572
#     295040
#     326297
#     336090
# 
# Disc length: 4658
# 
# Revision: 5
# Processed by: cddbd v1.5.2PL0 Copyright (c) Steve Scherf et al.
# Submitted via: fre:ac v1.0.17
# 
DISCID=21123013
DTITLE=Joe Cocker - The Collection Volume 2
DYEAR=1991
DGENRE=Blues
TTITLE0=(Please) Don't Let Me Be Misunderstood
TTITLE1=I Shall Be Released
TTITLE2=Dear Landlord
TTITLE3=Hitchcock Railway
TTITLE4=Something
TTITLE5=Something To Say
TTITLE6=Black Eyed Blues
TTITLE7=Put Out The Light
TTITLE8=The Moon Is A Harsh Mistress
TTITLE9=You Are So Beautiful
TTITLE10=Performance
TTITLE11=Guilty
TTITLE12=Where Am I Now?
TTITLE13=I Think It's Going To Rain Today
TTITLE14=Lucinda
TTITLE15=Didn't You Know You've Got To Cry Sometime?
TTITLE16=What Kind Of Man Are You?
TTITLE17=Something's Coming On
TTITLE18=She's So Good To Me
EXTD=
EXTT0=
EXTT1=
EXTT2=
EXTT3=
EXTT4=
EXTT5=
EXTT6=
EXTT7=
EXTT8=
EXTT9=
EXTT10=
EXTT11=
EXTT12=
EXTT13=
EXTT14=
EXTT15=
EXTT16=
EXTT17=
EXTT18=
PLAYORDER=
